<?xml version="1.0" encoding="UTF-8" standalone="no"?>
<!-- Created with Inkscape (http://www.inkscape.org/) -->

<svg
   width="14.637421mm"
   height="6.1496153mm"
   viewBox="0 0 14.637421 6.1496153"
   version="1.1"
   id="svg1"
   xmlns="http://www.w3.org/2000/svg"
   xmlns:svg="http://www.w3.org/2000/svg">
  <defs
     id="defs1" />
  <g
     id="layer1"
     transform="translate(-0.20232039,-0.10086785)">
    <path
       style="display:inline;fill:#ff1114;fill-opacity:1;stroke-width:0.529384"
       d="m 11.222492,6.2483784 c -0.16191,-0.3625905 0.10291,0.0341 0,0 z m -0.12264,-0.10464 c -0.0171,-0.1136 0.13047,0.03 0,0 z m -0.10712,-0.10274 c -0.0144,-0.1639805 -0.003,-0.1947905 -0.14831,-0.2223505 -0.007,-0.38223 -0.16337,-0.44503 -0.0747,-0.90656 0.0297,0.472 0.0304,-0.35646 0.1895,-0.28514 -0.30955,0.0537 -0.79055,-0.38755 -0.65566,-0.28786 -0.21488,-0.26151 0.12276,-0.62228 0.15542,-0.25759 0.16545,0.34926 0.003,-0.17805 0.20204,0.095 0.56456,0.0782 0.364,0.007 0.816,-0.2429 0.20453,0.0331 0.0629,-0.11563 0.34134,-0.2417 -0.67783,-0.272 -3.3026796,-0.0484 -4.6845896,-0.12891 -1.43636,0.0535 -3.41442,-0.13702 -4.55336,0.16267 -0.3199,-1.63772 0.73932,-0.50897 1.69282,-0.84501 2.51339,0.0498 5.2203797,-0.0907 7.6240796,0.0218 0.26103,-0.0339 0.015,-0.15182 -0.21623,-0.245 -0.18146,-0.0179 -0.59763,-0.36644 -0.46805,-0.34739 -0.0311,0.01 -0.87858,-0.22035 -0.82681,0.20904 -0.0266,0.20319 -0.16959,-0.26755 -0.10374,-0.40362 0.0943,-0.19332 0.26042,0.0839 0.23589,-0.14352 0.032,-0.0719 0.10753,-0.15819 0.27393,-0.13702 0.1935,-0.12936 -0.10999,-0.43909 -0.0453,-0.53728 -0.0274,-0.40795994 0.12391,-0.76192994 0.23245,-0.91897994 0.12319,-0.26816 0.12165,0.35266 0.20053,-0.22821 0.22905,-0.27666 -0.0687,0.68485 0.13872,0.89311994 -0.0948,-0.40835994 0.15536,0.33962 0.19771,0.24903 0.0157,0.13866 0.1236,0.0738 0.4925,0.45129 0.10098,0.23017 0.50372,0.31131 0.4117,0.36614 -0.33991,-0.18173 0.15059,0.12469 0.29491,0.21967 0.023,7.1e-4 0.28499,0.0433 0.45794,0.2813 0.52033,0.0419 -0.0224,0.15185 0.48302,0.14673 0.20333,0.15216 0.30972,0.22277 0.36509,0.17171 0.16467,0.0999 0.81396,0.18516 0.79448,0.2948 -0.32369,0.0336 -0.53851,0.21741 -0.92691,0.30754 -0.241,0.0976 -0.19134,0.0271 -0.38739,0.18034 -0.4979,0.0323 0.12187,0.0114 -0.39937,0.19399 0.0903,-0.0853 0.008,-0.0549 -0.28306,0.0797 0.15625,0.13296 -0.39781,0.11938 -0.21953,0.20807 -0.29202,0.20238 -0.68091,0.28762 -0.34756,0.22063 -0.22181,0.0883 -0.25455,0.28993 -0.55481,0.43335 -0.18621,0.13815 -0.34592,0.61357 -0.43936,0.42619 0.0556,0.29105 -0.0592,0.23789 -0.0585,0.63033 -0.26534,0.0432 0.0854,0.2279105 -0.20684,0.1365705 z m 0.0293,-0.0351 c -0.0405,-0.0584 -0.0198,0.06 0,0 z m 0.14905,-0.082 c -0.0471,-0.0139 -0.007,-0.0134 0,0 z m -0.005,-0.20505 c -0.006,-0.16981 -0.0581,0.3436505 0,0 z m -0.0298,-0.0297 c -0.0499,-0.0313 0.001,0.13334 0,0 z m -0.16756,-0.0377 c -0.0651,-0.0343 -0.0152,0.037 0,0 z m 0.004,-0.0721 c -0.0641,-0.0599 -0.0641,0.0599 0,0 z m -0.11001,-0.0391 c 0.0494,-0.32644 -0.17769,0.0638 0,0 z m -0.0695,-0.10857 c 0.0451,-0.166 -0.0834,0.12547 0,0 z m 0.48125,-0.0852 c 0.0261,-0.0931 -0.087,0.12197 0,0 z m -0.44907,-0.087 c -0.0457,-0.26682 0.0342,0.34924 0,0 z m 0.54805,0.0273 c -0.0377,-0.0492 -0.0377,0.0492 0,0 z m -0.61949,-0.055 c -0.0319,0.008 0.0239,0.0713 0,0 z m 0.033,-0.0745 c -0.0271,0.0213 0.0244,0.10803 0,0 z m 0.0492,-0.0987 c -0.0264,0.0244 0.0256,0.12706 0,0 z m 0.72786,-0.0278 c -0.15734,-0.15292 0.0189,0.1109 0,0 z m -0.11499,-0.0912 c -0.0396,-0.11404 -0.0396,0.11404 0,0 z m 0.21354,-0.0368 c -0.0744,6.3e-4 -0.0345,0.0924 0,0 z m -0.82722,-0.0864 c -0.0824,-0.0138 0.0104,0.12535 0,0 z m 0.80559,-0.0603 c -0.0318,0.008 0.0239,0.0713 0,0 z m 0.0873,0.0113 c -0.0407,-0.0864 -0.0407,0.0864 0,0 z m 0.0985,-0.008 c -0.0211,-0.0462 -0.13266,0.055 0,0 z m -0.90344,-0.0407 c -0.0407,-0.0864 -0.0407,0.0864 0,0 z m 0.99883,-0.0989 c -0.058,0.003 0.0171,0.0683 0,0 z m 0.0689,0.0168 c -0.0107,-0.5101 -0.0934,0.13696 0,0 z m -1.30587,-0.0728 c 0.003,-0.0906 -0.12754,0.0328 0,0 z m 0.22174,-0.0245 c 0.13276,-0.0844 -0.15182,-0.005 0,0 z m -0.41064,-0.0421 c 0.0117,-0.0542 -0.10512,0.0387 0,0 z m 0.21353,-0.0101 c -0.0565,-0.0649 -0.17983,0.0691 0,0 z m -0.27573,-0.0391 c 0.005,0.0163 -0.21353,-0.17763 0,0 z m 0.1936,-0.0164 c -0.0641,-0.0599 -0.0641,0.0599 0,0 z m 1.60977,0 c -0.0404,-0.0584 -0.0199,0.06 0,0 z m -1.52764,-0.0328 c -0.0641,-0.0599 -0.0641,0.0599 0,0 z m 1.65822,-0.0648 c 0.0868,-0.11087 -0.28154,-0.0216 0,0 z m -1.74479,0.0221 c -0.065,-0.0344 -0.0152,0.0371 0,0 z m 1.82566,-0.0998 c 0.1768,-0.0501 -0.15504,-0.0285 0,0 z m -0.0965,-0.0159 c 0.0393,-0.24071 0.0289,-0.0614 0,0 z m -1.54852,-0.032 c -0.0651,-0.0344 -0.0152,0.037 0,0 z m 0.17692,-0.007 c -0.059,-0.0624 -0.0204,0.0647 0,0 z m 0.4353,-0.0588 c -0.0493,-0.24534 -0.0576,0.25821 0,0 z m -1.1144,0.005 c 0.15207,-0.29069 -0.19282,0.0957 0,0 z m 0.88443,-0.0123 c 0.13975,-0.0827 -0.13045,0.0231 0,0 z m 0.29568,-0.0639 c 0.24454,-0.12948 -0.41987,-0.005 0,0 z m -1.19863,-0.0519 c 0.0383,-0.0961 -0.0851,0.06 0,0 z m 2.6277,-0.0483 c -0.12032,-0.0687 0.0409,0.0646 0,0 z m -1.28671,-0.12147 c -0.0633,-0.0561 0.004,0.0783 0,0 z m 0.16597,-0.0456 c -0.0864,-0.0571 -0.01,0.0655 0,0 z m 0.10232,-0.0543 c -0.0407,-0.0864 -0.0407,0.0864 0,0 z m 0.0575,-0.0738 c -0.0423,-0.0607 -0.0628,0.0588 0,0 z m 0.0739,-0.01 c -0.0659,-0.0291 -0.0641,0.0535 0,0 z m 1.06287,-0.0762 c -0.0252,0.032 0.0247,0.16366 0,0 z m 0.10338,0.0369 c -0.0374,-0.22851 -0.0374,0.22851 0,0 z m -10.2868696,-10e-4 c 0.1328,-0.13335 -0.26935,0.033 0,0 z m 9.1082996,0.007 c -0.0906,-0.0265 -0.016,0.0287 0,0 z m 2.02971,-0.14593 c 0.11785,-0.0686 -0.37809,-0.0272 0,0 z m -0.0986,-0.002 c 0.0721,-0.0234 0.007,0.0314 0,0 z m 0.36001,-0.0971 c -0.0651,-0.0343 -0.015,0.0371 0,0 z m 0.004,-0.0393 c 0.0252,-0.10846 -0.10473,0.0135 0,0 z m 0.10241,-0.0116 c -0.10118,-0.11101 -0.0309,0.0896 0,0 z m -0.15169,-0.0622 c -0.17302,-0.0912 -0.17299,0.0912 0,0 z m 0.30242,-0.0594 c -0.15504,-0.27732 -0.1563,0.11612 0,0 z m 0.13664,0.0413 c -0.0651,-0.0343 -0.0152,0.037 0,0 z m 5.3e-4,-0.0417 c -0.20264,-0.19198 -0.0625,-0.0225 0,0 z m 0.1428,-0.0149 c -0.19074,-0.0823 -0.0455,0.0514 0,0 z m -2.69042,-0.0747 c -0.0652,-0.0343 -0.015,0.0371 0,0 z m 2.30001,-4.2e-4 c 0.13862,-0.0784 -0.11812,-0.0529 0,0 z m -2.38214,-0.0816 c -0.065,-0.0344 -0.0152,0.037 0,0 z m -0.12696,-0.0129 c -0.0641,-0.0535 -0.0658,0.0291 0,0 z m 2.22986,-0.006 c -0.10397,-0.082 -0.14958,0.0306 0,0 z m -0.0825,-0.0635 c -0.0652,-0.0343 -0.015,0.0371 0,0 z m -11.1860996,-0.0834 c -0.0692,-0.0792 -0.0349,0.0604 0,0 z m 0.51763,0.0157 c -0.31012,-0.0222 -0.0617,0.0223 0,0 z m 0.6899,4.2e-4 c -0.16388,-0.0247 -0.032,0.0251 0,0 z m 1.64262,-5.8e-4 c -0.45619,-0.0206 -0.0911,0.0207 0,0 z m 0.32852,5.8e-4 c -0.16387,-0.0247 -0.032,0.0251 0,0 z m 0.88701,-4.2e-4 c -0.3101,-0.0222 -0.0617,0.0223 0,0 z m 2.4146497,10e-4 c -0.0906,-0.0265 -0.016,0.0287 0,0 z m 2.7595999,0 c -0.0906,-0.0265 -0.016,0.0287 0,0 z m 1.49479,-0.0192 c -0.10694,-0.0984 0.0661,0.10267 0,0 z m 0.12644,0.0131 c -0.0898,-0.0501 -0.0184,0.0481 0,0 z m -3.47738,-0.011 c -0.16388,-0.0247 -0.032,0.0251 0,0 z m 3.53274,-0.0112 c -0.0249,-0.0593 -0.0652,0.06 0,0 z m -2.25151,-0.006 c -0.3101,-0.0222 -0.0617,0.0223 0,0 z m -8.7181896,-0.0372 c -0.0199,-0.06 -0.0405,0.0584 0,0 z m 9.3054396,-0.0164 c -0.0466,-0.12122 -0.0466,0.12122 0,0 z m -0.0963,-0.0293 c -0.094,-0.0128 -0.003,0.0448 0,0 z m 1.32005,-0.0199 c -0.0633,-0.0588 -0.0419,0.0608 0,0 z m 0.14971,-0.003 c -0.0974,-0.045 -0.0113,0.0476 0,0 z m -1.63735,-0.0788 c -0.0502,-0.0931 -0.20781,0.0716 0,0 z m -0.12741,-0.0996 c -0.0624,-0.23198 -0.0606,0.25764 0,0 z m 1.34369,0.0418 c -0.0773,-0.0752 0.0309,0.0835 0,0 z m -1.49445,-0.0403 c -0.24035,-0.10246 -0.27643,-0.0272 0,0 z m -1.27739,-0.0522 c -0.0166,-0.26654 -0.0475,-0.0755 0,0 z m 1.2856,0.003 c -0.059,-0.0624 -0.0204,0.0647 0,0 z m 0.041,-0.0236 c -0.0383,-0.0563 -0.0473,0.0313 0,0 z m 1.30519,-0.008 c 0.0595,-0.0857 -0.27652,0.0159 0,0 z m -1.60531,-0.0438 c -0.0652,-0.0343 -0.015,0.0371 0,0 z m 1.53209,-0.033 c -0.12033,-0.019 -0.0883,0.091 0,0 z m -1.58971,-0.0154 c -0.1105,-0.082 -0.0358,0.0595 0,0 z m 0.0539,-0.007 c -0.0465,-0.065 -0.032,0.0319 0,0 z m 0.29567,0 c -0.0198,-0.06 -0.0405,0.0584 0,0 z m -1.37713,-0.0533 c -0.0287,0.0164 0.0266,0.0904 0,0 z m 0.0548,-0.0297 c -0.0296,-0.21079 -0.0203,0.23246 0,0 z m 2.11549,-0.0846 c -0.16366,-0.0462 -0.0278,0.0541 0,0 z m 0.15324,-10e-4 c -0.11114,-0.0495 -0.0231,0.0657 0,0 z m -1.44742,-0.0382 c -0.0708,-0.0863 -0.0539,0.10811 0,0 z m 1.18269,0.01 c -0.0641,-0.0599 -0.0641,0.0599 0,0 z m -1.49479,-0.0319 c 0.19666,-0.10319 -0.31709,0.003 0,0 z m 0.4969,0.0203 c -0.16413,-0.0246 -0.0317,0.0251 0,0 z m 1.16417,-0.0393 c -0.14763,-0.0966 0.0816,0.12041 0,0 z m -1.13679,-0.004 c -0.0672,-0.0436 -0.40991,0.0145 0,0 z m -1.06399,-0.0477 c -0.0374,0.0124 0.0551,0.0608 0,0 z m 0.65594,-0.30642 c 0.002,-0.15792 -0.0717,0.20613 0,0 z m 1.00928,0.0483 c -0.16748,-0.0724 0.045,0.0675 0,0 z m 0.0155,-0.0405 c 0.20328,0.0179 -0.32611,-0.16809 0,0 z m -0.0564,-0.0416 c 0.0419,-0.0589 0.0419,0.0589 0,0 z m -0.0759,-0.12222 c -0.30228,-0.32334 -0.0754,0.14423 0,0 z m -0.24671,-0.0664 c -0.0805,-0.088 -0.0607,0.0899 0,0 z m 0.0586,-0.0625 c -0.05,-0.0313 0.001,0.13332 0,0 z m -0.13025,-0.0282 c 0.0935,-0.10219 -0.0995,0.10659 0,0 z m -0.72136,-0.0669 c -0.0566,-0.0874 0.0479,0.14531 0,0 z m 0.65154,0.0304 c -0.0747,-0.0747 -0.0747,0.0747 0,0 z m -0.13962,-0.007 c -0.0905,-0.0266 -0.0163,0.0287 0,0 z m -0.50317,-0.10649 c -0.087,-0.18906 0.0797,0.25634 0,0 z m 0.51139,0.0504 c -0.126,-0.049 -0.0204,0.0568 0,0 z m 0.07,-0.0324 c -0.051,-0.0595 -0.0311,0.0826 0,0 z m 0.19712,0.0174 c -0.0406,-0.0584 -0.0197,0.0599 0,0 z m -0.26693,-0.0277 c -0.12736,-0.0255 -0.0242,0.0264 0,0 z m 0.0771,-0.0316 c 0.0621,-0.0729 -0.12555,-0.0104 0,0 z m -0.56578,-0.0883 c -0.0405,-0.0584 -0.0198,0.06 0,0 z m -0.0275,-0.2111 c 0.0512,-0.36971994 -0.0354,0.2128 0,0 z m 0.44764,0.0482 c 0.0893,-0.15071994 -0.0979,0.0352 0,0 z m -0.0582,-0.39482994 c -0.0641,-0.0599 -0.0641,0.0599 0,0 z m -0.009,-0.14463 c -0.16116,-0.11085 -0.0532,0.22621 0,0 z m -10e-4,-0.17936 c -0.007,-0.24749 -0.0433,0.25628 0,0 z m -0.11221,0.044 c -0.0387,-0.0491 -0.0399,0.0722 0,0 z m 0.13869,-0.19263 c -0.0455,-0.0313 -0.005,0.11164 0,0 z m -0.0221,5.86143044 c 0.039,-0.0861 0.0142,0.0866 0,0 z M 1.9914924,5.8731679 c -0.14602,-0.1929 0.0959,0.0376 0.38546,-0.0507 -0.39434,-0.0605 -0.0193,-0.39263 -0.19156,-0.75966 -0.16018,-0.45489 0.13128,-0.0344 -0.2557,-0.46542 0.11449,-0.0888 -0.32802,-0.40617 -0.15666,-0.19802 -0.0815,-0.0307 -0.31235,-0.30651 -0.27748,-0.42751 -0.1653,-0.0674 0.16821,-0.35516 0.10246,-0.36648 0.45233,-0.22227 0.23069,-0.0441 0.31867,-0.063 0.34772,0.1723 -0.15538,0.20109 0.15198,0.56204 0.0456,0.0902 0.12748,0.0982 0.27147,0.17982 0.16341,0.20091 0.26633,0.0484 0.27398,0.13526 0.13744,0.0842 0.85186,0.0235 0.70762,-0.0163 0.29908,-0.37951 0.0668,-0.51611 0.0607,-0.25094 -0.12123,-0.13628 -0.18299,-0.31713 0.12253,-0.24603 0.31472,0.0383 0.24959,0.45325 0.30453,0.23937 0.0876,0.26591 -0.0391,0.56446 -0.037,0.45643 -0.0764,0.30015 -0.38583,0.33543 -0.6427,0.37707 -0.0215,-0.16245 -0.62169,-0.15497 -0.26636,0.25297 0.0852,0.31607 -0.40096,0.7852305 -0.87201,0.64111 z m 0.63594,-0.14693 c 0.14346,-0.0243 -0.17116,0.007 0,0 z m -0.32794,-0.0401 c -0.0246,-0.0897 -0.073,0.0792 0,0 z m 0.32531,-0.0211 c -0.14301,-0.19096 0.0107,0.11273 0,0 z m 0.10386,0.002 c 0.27111,-0.49171 -0.18497,0.1137 0,0 z m -0.035,-0.0675 c 0.0369,-0.0853 0.0718,-0.0161 0,0 z m -0.40226,-0.14702 c -0.002,-0.5851 -0.12291,-0.25436 0,0 z m -0.0235,-0.0243 c -0.58696,-0.83 0.36934,0.4633 0,0 z m -0.0164,-0.21872 c 0.0235,-0.0436 0.009,0.0711 0,0 z m 0.0326,-0.17908 c 0.12415,-0.12112 -0.0996,0.0154 0,0 z m 0.14233,-0.0509 c -0.0652,-0.0343 -0.015,0.0371 0,0 z m 0.64948,-0.0337 c -0.10959,-0.0299 -0.0195,0.0299 0,0 z m 0.0983,-0.0165 c -0.0905,-0.0266 -0.0163,0.0287 0,0 z m 0.10642,-0.0155 c -0.0651,-0.0344 -0.0152,0.037 0,0 z m 0.0784,-0.007 c -0.0186,-0.0224 -0.0134,-0.0162 0,0 z m -1.04307,-0.0164 c -0.0184,-0.0533 -0.12784,0.0462 0,0 z m 1.13341,0 c 0.0407,-0.0646 -0.12031,0.0688 0,0 z m -0.23442,-0.01 c -0.0651,-0.0343 -0.015,0.0371 0,0 z m -1.18173,-0.2396 c -0.0604,-0.23215 -0.11644,-0.009 0,0 z m -0.0709,-0.12195 c 0.1037,-0.0302 -0.18345,0.0391 0,0 z m 0.0712,-0.0605 c -0.13803,-0.0992 -0.20069,0.0913 0,0 z m 0.61066,0.005 c -0.0419,-0.0589 -0.0419,0.0588 0,0 z m 1.16626,-0.0483 c -0.10965,-0.3319 -0.034,0.18212 0,0 z m -1.56396,-0.10068 c -0.20776,-0.077 0.11498,0.077 0,0 z m 0.10203,0.0195 c -0.0174,-0.0824 -0.0769,0.0569 0,0 z m 1.22786,-0.006 c -0.0747,-0.0747 -0.0747,0.0747 0,0 z m 0.22887,-0.0154 c -0.0318,0.008 0.0239,0.0713 0,0 z m -2.03686,-0.0164 c -0.0318,0.008 0.0239,0.0714 0,0 z m -0.0541,-0.0399 c 0.0467,-0.0778 -0.3977,-0.0963 0,0 z m 1.83337,-0.0391 c 0.18957,0.0216 -0.19064,0.0242 0,0 z m 0.20833,0.0133 c -0.0318,0.008 0.0239,0.0713 0,0 z m -0.14262,-0.0953 c -0.17358,-0.0611 -0.17358,0.061 0,0 z m 0.0553,-0.0839 c 0.084,-0.14615 -0.31239,0.0674 0,0 z m -0.36225,-0.13434 c -0.0597,-0.0124 -0.0761,0.0986 0,0 z m -1.31922,0.0141 c 0.0255,-0.11208 -0.17452,0.11319 0,0 z m 1.42463,-0.0191 c -0.0651,-0.0343 -0.0151,0.0371 0,0 z m -1.47391,-0.0229 c -0.0419,-0.0589 -0.0419,0.0589 0,0 z m -0.18054,-0.21684 c -0.0484,-0.28927 -0.1644,0.10345 0,0 z m 0.10892,2.1447 c 10e-4,-0.0858 0.0778,0.0924 0,0 z m 0.64668,0.008 c 0.12037,-0.0688 -0.0408,0.0646 0,0 z m -0.48868,-0.0483 c 0.2331,-0.30212 0.0386,-0.089 0,0 z m 0.0452,-9.8e-4 c -0.0405,-0.0584 -0.0199,0.06 0,0 z m 0.0436,-0.0904 c 0.0281,-0.14775 -0.10889,0.15163 0,0 z m 0.64193,-0.70687 c -0.007,-0.12605 0.0874,0.0259 0,0 z m 0.1686,-0.0394 c -0.0339,-0.0464 0.0715,0.0226 0,0 z m -0.0657,-0.0328 c 0.0419,-0.0588 0.0419,0.0589 0,0 z m 7.8322096,-0.733 c 0.0721,-0.0234 0.007,0.0314 0,0 z m 1.93475,-0.003 c -0.0158,-0.0777 0.0702,0.0328 0,0 z M 2.0694624,4.0680979 c 0.0473,-0.0312 0.0383,0.0563 0,0 z m -0.61462,-0.0132 c -0.0387,-0.0816 0.0594,0.0238 0,0 z m 8.8441396,-0.14984 c 0.10669,-0.44001 0.0318,0.11347 0,0 z m 0.0999,-0.0205 c -0.0691,-0.1048 0.0437,0.0412 0,0 z m 1.26352,-0.0933 c 0.0311,-0.0826 0.051,0.0595 0,0 z m -9.5928996,-0.0924 c 0.0857,-0.16372 0.0643,0.0203 0,0 z m -1.25744008,-0.0883 c -0.23222997,0.004 -0.99379997,-0.40241 -0.36880997,-0.59036 -0.0251,-0.11968 0.35955997,-0.14648 0.55009997,-0.19783 -0.34455997,0.0607 0.38571008,0.0475 0.55611008,0.20435 0.2152,0.0445 1.17512,0.22707 0.25471,0.30269 0.0366,-0.34657 -0.46914,0.026 -0.0879,0.002 -0.1395,0.071 -0.73276008,0.30878 -0.78439008,0.26254 0.12318998,0.0286 -0.0922,0.0432 -0.11985,0.0168 z m -0.27018997,-0.0992 c -0.16301,-0.21597 -0.12994,0.0305 0,0 z m 0.68167995,0 c -0.0641,-0.0599 -0.0641,0.0599 0,0 z m -0.63240995,-0.0328 c -0.0525,-0.11036 -0.18469,0.0435 0,0 z m 0.58312995,-0.0164 c -0.0189,-0.0607 -0.0841,0.047 0,0 z m 0.1855101,-0.008 c -0.1066601,-0.063 -0.0576,0.052 0,0 z m -0.1115901,-0.0408 c -0.0658,-0.0291 -0.0641,0.0535 0,0 z m -0.68160995,-0.017 c -0.12062,-0.1276 -0.0515,0.0849 0,0 z m -0.14638,-0.042 c 0.15494,-0.057 -0.28625,0.0282 0,0 z m -0.10009,-0.0399 c -0.0198,-0.06 -0.0405,0.0584 0,0 z m 0.23818,0 c -0.0861,-0.0586 -0.0861,0.0586 0,0 z m 0.60777995,-0.01 c -0.0659,-0.0291 -0.0641,0.0535 0,0 z m 0.7227401,0.0191 c -0.0383,-0.0563 -0.0473,0.0312 0,0 z m -1.61220005,-0.11353 c 0.0192,-0.37731 -0.0653,0.33066 0,0 z m 1.90284005,0.0267 c -0.0273,0.0213 0.0244,0.10802 0,0 z m 0.0447,-0.009 c -0.008,-0.21833 -0.0443,0.22815 0,0 z m -0.32398,-0.041 c -0.0264,0.0244 0.0256,0.12704 0,0 z m -0.47502,-0.04 c -0.0972,-0.0633 -0.0137,0.0673 0,0 z m 0.79925,-0.0152 c -0.10992,-0.004 -0.0771,0.0689 0,0 z m -1.90386005,-0.0157 c 0.026,-0.13294 -0.0723,0.12298 0,0 z m 1.55188005,0.0176 c -0.26861,-0.0546 -0.14351,0.0243 0,0 z m 0.0862,-0.0109 c -0.0906,-0.0265 -0.016,0.0287 0,0 z m 0.12285,9.2e-4 c -0.065,-0.0344 -0.0153,0.037 0,0 z m -0.72275,-0.0984 c -0.065,-0.0344 -0.0153,0.037 0,0 z m -0.80043005,-0.0229 c -0.0423,-0.0607 -0.0628,0.0588 0,0 z m 0.82911005,-0.0157 c -0.3004801,-0.18437 -0.3529701,0.0542 0,0 z m -0.79626005,-0.0335 c -0.0199,-0.06 -0.0405,0.0584 0,0 z m 1.49735005,0.65973 c -0.0562,-0.35989 0.3347,-0.0172 0,0 z m 0.13213,-0.12167 c -0.0634,0.009 0.0449,0.0858 0,0 z m 11.4470896,0.12859 c 0.12089,-0.081 0.0836,0.0247 0,0 z M 0.45378235,2.9563379 c -0.0127,-0.0772 0.16302,-0.0247 0,0 z m 1.55842005,-0.003 c 0.11795,-0.002 -0.6914,-0.16542 -0.36938,-0.14006 -0.1311,-0.12412 -0.0584,-0.0903 -0.1561,-0.2926 -0.16766,0.0598 0.007,-0.26138 0.10055,-0.2121 0.0616,-0.17493 0.24461,-0.42349 0.30977,-0.36899 0.10719,-0.20998 0.23944,-0.2671 0.2881,-0.32341 0.23894,-0.1177 -0.27971,-1.16808994 -0.0242,-0.75129994 0.36641,0.54853994 -0.23674,-0.33042 -2.6e-4,-0.24115 0.28485,-0.2325 0.83589,0.59185994 0.53886,0.21922 0.36223,0.37151994 -0.23885,0.90041994 0.37695,0.70921994 -0.0309,-0.0293 0.32335,-0.0817 0.29246,0.004 0.6682,0.144 0.52673,0.99466 0.0974,1.01955 -0.46783,0.1298 0.0735,-0.65806 -0.23278,-0.56663 -0.61856,-0.01 -0.55992,0.0322 -1.06542,0.17403 -0.36405,0.0985 0.0225,0.11626 -0.12414,0.56664 0.30428,0.12231 0.14726,0.18034 -0.0317,0.20362 z m -0.0621,-0.043 c -0.065,-0.0344 -0.0152,0.0371 0,0 z m 0.21659,-0.0395 c 0.0412,-0.19825 -0.32396,0.13131 0,0 z m -0.40104,-0.0326 c -0.0465,-0.065 -0.0321,0.0318 0,0 z m -0.16426,-0.0328 c -0.059,-0.0624 -0.0204,0.0647 0,0 z m 0.36791,-0.27494 c 0.14258,-0.51426 -0.0826,0.21873 -2.7e-4,0 z m -0.0367,0.0248 c -0.0287,0.0164 0.0266,0.0904 0,0 z m 1.55781,-2.5e-4 c 0.21128,-0.40282 -0.53038,0.14901 0,0 z m -0.12319,-0.0113 c 0.11248,-0.0742 0.034,0.0338 0,0 z m 0.19266,-0.0271 c -0.0651,-0.0344 -0.0152,0.037 0,0 z m -2.08295,-0.0607 c -0.0499,-0.0313 0.001,0.13333 0,0 z m 2.21869,-0.0141 c -0.0893,-0.0716 -0.1374,-0.015 0,0 z m -1.73296,-0.0465 c -0.0199,-0.06 -0.0405,0.0585 0,0 z m -0.30388,-0.0267 c -0.0317,-0.11855 -0.1308,0.0721 0,0 z m 2.14023,-0.12546 c 0.03,-0.55746 -0.10952,0.25141 0,0 z m -1.6803,0.0702 c -0.0419,-0.0588 -0.0419,0.0589 0,0 z m -0.48212,-0.10054 c -0.0763,-0.1164 -0.003,0.15362 0,0 z m 0.31409,-0.0768 c -0.0138,-0.0673 -0.097,0.0634 0,0 z m 0.25743,-0.0263 c -0.12219,-0.0691 0.0735,0.0771 0,0 z m -0.13868,-0.01 c -0.0419,-0.0589 -0.0419,0.0589 0,0 z m 0.0739,-0.0492 c -0.0733,-0.10632 -0.0734,0.10632 0,0 z m 0.11586,0.015 c -0.0721,-0.13588 -0.0445,0.0821 0,0 z m -0.49367,-0.015 c -0.059,-0.0625 -0.0203,0.0647 0,0 z m 0.30389,-0.0492 c -0.0419,-0.0588 -0.0419,0.0589 0,0 z m 0.1232,0 c -0.0198,-0.06 -0.0405,0.0585 0,0 z m 0.10677,0 c -0.0405,-0.0584 -0.0199,0.06 0,0 z m 0.38601,0 c -0.18813,-0.0442 0.11081,0.0546 0,0 z m 0.76792,-0.0772 c -0.16397,-0.0246 -0.0319,0.0251 0,0 z m 0.33499,-0.0674 c -0.0584,-0.24506 -0.0264,0.23399 0,0 z m -0.0257,0.004 c 0.0236,-0.0437 0.009,0.0711 0,0 z m -0.30929,0.0144 c -0.16388,-0.0247 -0.032,0.0251 0,0 z m 0.16016,-0.0868 c -0.0579,-0.2273 -0.0579,0.22731 0,0 z m 0.0622,-0.10162 c -0.1156,-0.1466 0.0272,0.13305 0,0 z m -1.3815,-0.0819 c -0.0318,0.008 0.0239,0.0713 0,0 z m 0.67869,-0.0297 c -0.0264,-0.0691 -0.0991,0.0562 0,0 z m 0.0613,0.006 c -0.0651,-0.0344 -0.0152,0.0371 0,0 z m 0.18924,-9.2e-4 c -0.0906,-0.0265 -0.0161,0.0287 0,0 z m 0.0821,-0.0164 c -0.0906,-0.0265 -0.0161,0.0287 0,0 z m -0.57327,-0.0547 c 0.0383,-0.18214 -0.10972,0.17857 0,0 z m -0.44329,-0.0903 c -0.0389,-0.0861 -0.0143,0.0866 0,0 z m 0.0105,-0.0584 c -0.0569,-0.12344 -0.0938,0.007 0,0 z m -0.0248,-0.16354 c -0.0838,-0.0914 0.10326,0.30092 0,0 z m 0.55045,0.1153 c -0.2542,-0.0969 0.0221,-0.0158 0,0 z m 0.0164,-0.0984 c -0.0405,-0.0584 -0.0198,0.06 0,0 z m -0.006,-0.10253 c -0.0287,0.0164 0.0266,0.0903 0,0 z m -0.53767,-0.0493 c -0.0274,-0.0827 -0.0304,0.11405 0,0 z m 0.44466,-0.032 c -0.0256,-0.0697 -0.0444,0.0762 0,0 z m -0.0657,-0.10840994 c -0.0325,-0.16352 -0.21036,0.0965 0,0 z m -0.3711,-0.26323 c -0.036,-0.0293 -0.15529,0.0487 0,0 z m 0.0709,0.004 c -0.0651,-0.0343 -0.015,0.037 0,0 z m 0.11943,-0.006 c -0.10507,-0.0384 0.0123,0.0541 0,0 z m -0.29125,-0.0108 c -0.10945,-0.0299 -0.0197,0.0298 0,0 z m 0.20912,-0.006 c -0.10545,-0.0883 -0.0451,0.0573 0,0 z M 0.61521235,2.8543679 c 0.24041997,-0.0898 0.22119997,-6.9e-4 0,0 z m 13.07797965,-0.0276 c -0.0665,-0.0575 0.0566,-0.0407 0,0 z m -12.80252968,-0.0168 c 0.10839,-0.0242 0.0208,0.0271 0,0 z m 1.71623008,-0.0487 c 0.0905,-0.0266 0.0163,0.0287 0,0 z m -1.1591,-0.0968 c 0.30743,1e-5 0.0823,0.0329 0,0 z m 10.1976096,0.009 c 0.0419,-0.0588 0.0419,0.0589 0,0 z m 1.59334,-0.0656 c -0.2891,-0.0427 0.21008,-0.0365 0,0 z m -9.9737796,-0.0276 c 0.072,-0.0234 0.007,0.0314 0,0 z m 9.8921196,-0.0374 c -0.0706,-0.0524 0.0789,4.5e-4 0,0 z m -2.67794,-0.20436 c -0.0426,-0.15272 0.29418,-0.0259 0,0 z m 0.0821,-0.0514 c -0.0718,0.0162 -0.0369,0.0853 0,0 z m 0.55849,0.009 c 0.0419,-0.0589 0.0419,0.0589 0,0 z m -8.9457296,-0.0137 c -0.41408,-10e-4 0.64801,-0.27505 0,0 z m 0.0674,-0.0519 c -0.0205,-0.0648 -0.0588,0.0626 0,0 z m 0.0739,-0.0393 c -0.0642,-0.0535 -0.0658,0.0291 0,0 z m 7.9368496,0.0357 c -0.0884,-0.0753 0.0531,-0.0406 0,0 z m -6.4060096,-0.15229 c 0.0176,-0.0779 0.0101,0.099 0,0 z m 8.4692896,0.0299 c -0.0873,-0.13936 0.12908,0.0559 0,0 z m -9.5403996,-0.0776 c 0.18588,-0.0607 -0.15014,0.0795 0,0 z m 7.6560996,-0.003 c 0.0236,-0.0437 0.009,0.0711 0,0 z m -0.0853,-0.037 c 0.36973,-0.29134 -0.0947,0.14403 0,0 z m 0.084,-0.0519 c -0.0198,-0.06 -0.0405,0.0584 0,0 z m -8.4576796,-0.16225 c 0.0535,-0.18869 0.0656,0.13441 0,0 z m 0.0922,-0.15354 c 0.28546,-0.77271994 0.057,0.22433 0,0 z m 8.6816696,-0.23376 c 0.0157,-0.1071 0.0101,0.12748 0,0 z m -0.01,-0.48749994 c 0.12824,-0.51529 -0.008,0.28879994 0,0 z m 0.0331,-0.0815 c -0.0318,0.008 0.0239,0.0713 0,0 z m -8.7627796,-0.0703 c -0.17655,-0.26895 0.24767,0.14385 0,0 z m 0.59695,0.0165 c 0.14769,-0.0953 -0.0689,0.0907 0,0 z m -0.732,-0.0908 c -0.0338,-0.0464 0.0714,0.0227 0,0 z m 9.0179896,-0.17222 c 0.0205,-0.0885 0.0839,-0.0607 0,0 z m 0.22292,-0.31581 c 0.0451,-0.0911 0.0513,0.0539 0,0 z"
       id="path6" />
  </g>
</svg>
