<?xml version="1.0" encoding="UTF-8" standalone="no"?>
<!-- Created with Inkscape (http://www.inkscape.org/) -->

<svg
   width="442.35535"
   height="217.05092"
   viewBox="0 0 117.03986 57.428057"
   version="1.1"
   id="svg1"
   xml:space="preserve"
   inkscape:version="1.4.2 (ebf0e940d0, 2025-05-08)"
   sodipodi:docname="bat-vector.svg"
   xmlns:inkscape="http://www.inkscape.org/namespaces/inkscape"
   xmlns:sodipodi="http://sodipodi.sourceforge.net/DTD/sodipodi-0.dtd"
   xmlns="http://www.w3.org/2000/svg"
   xmlns:svg="http://www.w3.org/2000/svg"><sodipodi:namedview
     id="namedview1"
     pagecolor="#ffffff"
     bordercolor="#000000"
     borderopacity="0.25"
     inkscape:showpageshadow="2"
     inkscape:pageopacity="0.0"
     inkscape:pagecheckerboard="0"
     inkscape:deskcolor="#d1d1d1"
     inkscape:document-units="mm"
     showgrid="false"
     inkscape:zoom="1.0200267"
     inkscape:cx="589.20029"
     inkscape:cy="103.91885"
     inkscape:window-width="2560"
     inkscape:window-height="1362"
     inkscape:window-x="0"
     inkscape:window-y="0"
     inkscape:window-maximized="1"
     inkscape:current-layer="layer1"
     inkscape:clip-to-page="true" /><defs
     id="defs1"><filter
       style="color-interpolation-filters:sRGB"
       inkscape:label="Lightness-Contrast"
       id="filter8"
       x="0"
       y="0"
       width="1"
       height="1"><feColorMatrix
         values="0.21 0.72 0.072 0 0 0.21 0.72 0.072 0 0 0.21 0.72 0.072 0 0 0 0 0 1 0 "
         id="feColorMatrix8"
         result="fbSourceGraphic" /><feColorMatrix
         result="fbSourceGraphicAlpha"
         in="fbSourceGraphic"
         values="0 0 0 -1 0 0 0 0 -1 0 0 0 0 -1 0 0 0 0 1 0"
         id="feColorMatrix9" /><feColorMatrix
         id="feColorMatrix10"
         values="11 0 0 0 -5 0 11 0 0 -5 0 0 11 0 -5 0 0 0 1 0"
         in="fbSourceGraphic" /></filter></defs><g
     inkscape:label="Capa 1"
     inkscape:groupmode="layer"
     id="layer1"
     transform="translate(-8.8635249,-2.0570444)"><path
       style="fill:#000000"
       d="m 67.215652,59.22807 c -0.539003,-3.444401 -1.245447,-6.97597 -3.671012,-9.71545 -0.316337,-0.410449 -2.274785,-1.44287 -0.796247,0.552041 -0.01971,-1.005429 -0.08138,1.703715 -1.736724,-0.750209 1.362352,-3.840246 -3.753957,-6.304479 -6.223039,-9.229092 -4.936875,-3.533985 -11.270908,-6.028728 -17.404098,-4.70567 -1.874627,0.907999 -3.752011,3.031091 -2.517016,-0.63167 0.412585,-2.832603 0.01533,-5.282806 -1.96349,-7.29602 -2.78285,-3.43397 -7.570714,-4.487166 -11.759701,-3.50387 -1.948434,0.635302 -3.4618,2.57499 -2.088063,-0.444343 1.088319,-3.816749 1.539896,-7.993695 -0.04665,-11.637823 C 18.087243,9.8533909 16.518994,7.6220167 14.286558,6.4506672 12.947544,4.4122779 6.2177624,6.780668 10.00695,4.4036649 15.788641,1.1483433 22.601256,2.1951919 28.923461,2.2980931 c 4.07426,1.1403155 8.724765,1.4890916 12.517268,3.6619329 2.732979,2.7325264 5.144367,0.051496 2.591853,-2.1145423 4.528603,1.838937 2.215642,7.8908883 3.4892,11.6288153 1.106065,4.105774 3.581843,8.93084 8.506201,8.822015 5.701817,0.818287 -0.832418,-6.543961 3.540573,-8.584007 2.465251,2.117958 4.370211,5.087436 8.063395,3.122543 3.76652,2.715722 5.468556,-3.490775 8.068053,-2.887703 3.08302,3.00714 -1.977158,9.695726 4.359847,7.957849 5.258125,-1.626143 7.039123,-7.745928 6.926895,-12.70467 -0.06911,-2.8044177 0.07888,-5.0133701 2.156379,-6.9471883 2.530635,-1.1328254 -2.314255,4.6614118 2.077332,2.5864057 1.376635,-0.7003763 2.039596,-0.749903 3.242062,-1.3932745 1.123134,-0.2108176 2.216988,-0.6071946 2.947719,-0.8915687 1.491391,-0.3952164 2.632712,-0.4625718 4.357842,-1.1250116 3.11462,-0.4128052 6.5134,-0.9606214 10.11528,-0.9923084 4.86881,0.2756065 10.41326,0.8661386 14.02002,4.4736505 -3.96582,-2.0166125 -7.63999,1.6268052 -10.02322,4.4638203 -1.63436,2.935483 -2.31062,6.41411 -1.61286,9.881601 0.0363,2.032386 3.44121,6.744926 -0.58346,3.37294 -5.72191,-1.562323 -12.69544,0.518714 -15.386692,6.06625 -1.547594,1.575537 0.57153,7.034976 -1.03151,6.19686 -2.531921,-1.861675 -6.108244,-2.226792 -9.202621,-1.196061 -2.947295,0.652008 -5.49842,1.902419 -7.8956,3.514016 -2.721493,2.55032 -8.575773,5.661949 -6.623652,9.798985 0.190991,2.014679 -3.764027,2.461763 -2.698254,0.29225 -1.386915,1.637637 -2.141234,4.980017 -2.861496,8.0807 -0.04567,-0.02625 -0.477328,2.983429 -0.768363,1.845678 z m 4.419679,-9.1469 c 0.553398,-2.150402 -1.438523,1.509581 0,0 z m 1.177426,-0.49556 c -0.750904,0.0074 -0.853507,1.834066 0,0 z M 89.680531,7.4361842 c -1.230121,-0.1961016 -0.01533,0.3420379 0,0 z m 0.885437,-0.186191 c -0.727747,-0.2242059 -0.363154,0.3442516 0,0 z m 16.114992,-4.360435 c -1.23012,-0.1961069 -0.0153,0.34204 0,0 z"
       id="path10" /></g></svg>
