<svg xmlns="http://www.w3.org/2000/svg" xml:space="preserve" width="192" height="32"><defs><clipPath id="a" clipPathUnits="userSpaceOnUse"><path d="M-1.301.163h194.033v31.878H-1.301z" style="fill:purple"/></clipPath></defs><g style="display:inline"><path d="M-.986 121.947c.013-11.635-.02-23.27.073-34.904 1.407 3.354 4.982.765 8.083.98 3.477.266 3.939-1.792 8.117.034 3.44.29-3.597-1.976-.658-5.072.672-2.707-2.55-8.193-1.568-2.811-1.413 3.457-1.354 2.586-3.155.045-2.495 6.097-.332-5.487-2.055-7.608-2.032-1.92-.648 3.08-1.864 3.6.064 2.616.574 10.161-1.41 5.951-1.533 1.208-.513 8.16-2.295 3.87.219-5.79-2.03 2.951-2.025-2.277-2.484-4.244-.577-11.37-1.2-16.759-.07-34.492-.035-68.984-.044-103.476h20.274c2.069 1.234 3.723-1.21 1.643 2.313.518 2.643 1.75-1.885 1.125 2.161.774 4.477-1.68-3.877-1.543 1.345 1.626 4.922 1.484.086 2.445 1.463 1.236 4.605 2.597-2.386 3.775-2.175-.61-2.866-2.056-1.958-1.548-4.183-2.104.947.016-1.57 1.053-.135 3.008-1.702 11.761-.204 16.82-.741 49.787-.078 99.573-.038 149.359-.048V68.191c-2.034-1.944 1.098 5.482-.681 1.206-1.076 1.062-.897 7.264-2.69 2.073-5.416-1.077 3.12-.563.287-2.178-2.62-.027-4.363 2.474-1.426 2.356-2.506-.181.088 6.918-.471 1.025.12 2.721-.741 8.503-.23 12.542-.698 4.845-2.515-2.892-2.501-4.123-.84-4.895-1.755.187-1.44 1.755-.579 1.855-.372 13.142-.914 4.972-.31-1.822-1.214-4.937-1.733-5.57.318 2.32-2.538 3.51-1.498 5.483 2.033 3.543-4.138 5.744-.685 5.58.162 2.502 4.578-1.942 7.615-.474 2.688.39 2.721-2.99 4.534-3.47-.066-2.268 2.843-4.277 1.83.412 2.182 3.77-5.758 2.808.003 2.949v64.194c-58.079-.064-116.16.157-174.237-.156-5.15.692 1.017-3.842-4.093-3.34 1.301 1.169-5.018 1.201.104 1.894-1.19 1.41-.26 1.669-5.195 1.593-3.327.013-6.655.007-9.983.01l.002-34.977zm17.67 24.18c3.929-1.032 1.444-6.812-2.815-2.642-2.21 2.667-.788 3.012 2.816 2.641zm8.71-1.078c4.863-2.172-1.046-4.853-2.041-2.237.721.876-.393 3.197 2.04 2.237zm.988-.504c.442-.947-.848 1.205 0 0zm-10.256-2.637c.293-1.142-4.497.995 0 0zm11.078-.276c5.678-1.808-4.74-3.137-3.577-.205 1.171.28 2.382.309 3.577.205zm-.873-2.248c5.581-1.13-5.821-.55 0 0zm-11.768-.24c4.227-1.001-.816-1.372 2.156-2.689-4.627-1.081-6.047 3.95-2.156 2.688zm16.785-4.211c2.264-2.461-8.122-1.243-1.863-.209-4.393 1.41 2.332.609 1.863.209zm-4.372-.583c-.958-.539-.958.54 0 0zm5.14-.29c-.064-.88-.458 1.248 0 0zm1.996-6.045c2.1-.904 1.029-4.823-3.043-4.056-1.425-.516 5.545-.652.25-1.043-6.029-1.334-12.331-.182-18.144 1.322 6.027 1.069 12.11 3.107 18.247 2.83.73.266 1.688 2.261 2.69.947zm-6.088-1.337c.385-1.364 2.073.686 0 0zm-2.07-2.738c1.973-1.28 1.116.58 0 0zm9.714.916c-.28.064.209.639 0 0zm.478-1.056c-.489.122-.634 1.579 0 0zm1.246-2.905c3.085-4.297-4.578-3.89-8.146-1.767-3.664 1.378 5.008.421 6.104 1.824.513-1.12 1.976 1.632 2.042-.057zm74.008-11.992c-.242.187.216.96 0 0zm9.902-10.406c-.28.063.208.638 0 0zm57.135-1.81c-.536-.532-.175.944 0 0zm-57.934-6.202c-.676-.284.285 1.11 0 0zm-14.811-.845c-.574-.915.24 1.258 0 0zm14.782-.37c-.911-.14-.322-.073 0 0zm.291-.14c-.345-.764-.126.77 0 0zm-42.28-.537c-.28.064.209.639 0 0zm26.578-.44c-.636-.13.451.657 0 0zm-25.907-.989c-.729-.99-.428 1.102 0 0zm39.385.058c-.576-.306-.136.328 0 0zm2.224-.713c-.351-1.012-.351 1.012 0 0zm-2.164-.231c-3.037-1.242 1.377 1.163 0 0zm-1.796-.21c-.412.282-.173.634 0 0zm1.788-2.46c3.516-3.622-3.42 4.464 0 0zm.129 1.008c-.51.198-.119.813 0 0zm27.188-.068c3.426-.086 6.078.294 5.355-4.593-.061 2.31 1.49 4.258 1.986.752-.74 6.558 7.054-4.913 1.223-2.13.226 1.625-2.374 1.147-2.765.05-.056-2.853 4.155 2.168 1.678-2.182-1.47-2.732-3.435 6.122-5.803 4.232 1.511-4.913-3.425-4.32-1.738.834.6 2.66-4.758-3.526-2.393.595.04 1.588 1.471-.113.259 2.51.734.07 1.46-.195 2.198-.068zM113 83.496c-.28.063.21.639 0 0zm7.14-1.318c-.225.264.211 1.277 0 0zm.346-.126c-.517-.984.347 1.447 0 0zm-65.284-1.048c-.139-1.78-2.414-2.285 0 0zm62.796.044c-.359-.52-.176.532 0 0zm38.985-.838c-.234.217.227 1.128 0 0zm1.764.372c2.444-4.713-2.847-1.492 0 0zm-97.17-1.756c-1.416-1.064-8.221-1.424-2.846.16.949-.035 1.904-.023 2.846-.16zm5.303-.109c-.372-.522-.372.523 0 0zm-12.988-2.705c-.752-1.668-.361-7.016.888-5.27-1.422 2.42 9.935-1.774 2.824-1.158-2.619-1.46 2.879-4.955-1.413-1.878-4.124 2.354-3.37 7.107-2.388 10.72.067-.803.066-1.61.089-2.414zm1.278-6.156c.703-1.61 1.022-.012 0 0zm101.858 8.015c-.878-2.593-1.757 1.494 0 0zm-91.75-.546c-.452-.528-.276.734 0 0zm92.666-.938c-.332-1.014-.103 1.014 0 0zm-99.842-.163c2.488.97 8.719-2.171 2.369-.842-1.91-.324-7.051.456-2.37.842zm32.098-1.1c-.514-.633.292 1.089 0 0zm-35.205-.842c2.518-.141 11.654-1.258 3.698-1.4-1.535-.9-4.746.104-3.698 1.4zm35.966-.002c-.198-2.69-1.666.325 0 0zm-58.232-.533c5.683 1.188-4.28-4.373-2.366-.685-3.266.467 1.898.964 2.366.685zm-8.845-.506c.772-.777-8.723-5.028-6.905-1.375-4.653.03 4.955 2.343 6.905 1.375zm-6.993-.683c-1.457-1.33 2.347.631 0 0zm75.145.538c-.577-.306-.136.328 0 0zm-.583-.146c-.577-.306-.136.329 0 0zm1.574-1.696c-3.825-2.23.402-1.1 3.541-1.777 1.235-1.968 10.554-3.491 3.218-3.08-.347-1.773 2.22-1.753-1.004-2.83 4.86-.208 1.613-1.958-1.729-.938 3.209-.657 4.36-4.286.565-1.18-2.96 1.163-5.26 4.89-7.219 3.66-3.21 1.835.434 6.172.91 6.486 1.75-.983 1.297 3.61 1.718-.34zm-1.26-2.612c-.48-2.286.927.056 0 0zm.813-.596c-1.294-2.352 1.044 0 0 0zm-1.67 4.264c-.758-.574-.456.437 0 0zm98.959-.291c-.373-.54-.56.522 0 0zm-80.895-.903c.353-3.606-.751 2.842 0 0zm-8.356-.007c-.255.145.237.802 0 0zm25.973.166c-1.437-.84-2.12.607 0 0zm63.884-.312c-.254.146.236.802 0 0zm-91.034-.198c.635-1.352-1.087 1.347 0 0zm.933-.102c-.73-.147.03 1.051 0 0zm2.716-1.367c-.977 1.582-.827 2.68 0 0zm87.57.939c-.185-1.584-.508.661 0 0zm-86.934-.255c-1.443-1.114-.237.998 0 0zm2.839.147c-.369-.266-.58.47 0 0zm27.832-.234c-.567-.67.223 1.01 0 0zm-34.64-.277c-.158-1.283-.252 1.2 0 0zm5.425.064c-.452-.528-.276.734 0 0zm-18.787.024c-1.109-1.243-.296.651 0 0zm12.916-.188c-.28.063.208.638 0 0zm9.22-.191c-.754-.795-.754.794 0 0zm-3.97-.015c-.577-.307-.137.328 0 0zm-71.148-.495c-2.768-1.626-5.245-2.28-2.65-4.568-2.145-1.618 1.148-3.454-.6-5.335 2.437-2.678-5.012-3.716-3.246 1.503.115 1.965.676 7.445-1.644 6.279.46-2.186.362-7.274-.962-7.21 1.969-1.87.72-5.736-.951-2.616.5 3.379-.08 6.107-.412 9.214-.77 3.542 8.433 1.937 10.465 2.733zm-5.748-1.711c-.191-4.91.84-.447 0 0zm-3.601-.328c.568-.532.568.532 0 0zm3.495-4.806c.56-.522.373.54 0 0zm.291-1.893c.372-.523.372.522 0 0zm-8.01 7.278c-5.415-.89-.537-5.417-2.436-7.221 2.312-4.558-3.944-8.894-3.6-2.533-1.588 3.57 3.182 9.746-2.182 8.189-7.727.03 6.985 2.108 8.218 1.565zm-5.534-2.831c1.355-2.097.639 1.49 0 0zm1.893-3.282c.547-1.03.547 1.029 0 0zm-1.021-2.221c-.391-2.94 1.53.785 0 0zm176.366 8.038c-.45-.788-.259.988 0 0zm-3.204-.283c-.372-.523-.372.522 0 0zm.689.058c-.577-.306-.137.328 0 0zM11.665 65.086c.707-1.736 1.592-5.564 1.115-9.003-1.484-6.605-4.482 3.015-2.517 5.545-.971 1.119-1.314 5.537 1.402 3.458zm.05-7.267c.905-2.534.68 2.67 0 0zm176.77 7.427c-.862-1.444-1.086.759 0 0zm-175.807-.339c-.534-1.177-.535 1.208 0 0zm89.737-.389c-.842-.847-.663.75 0 0zm21.942-6.663c-.255.146.236.802 0 0zm2.187-1.01c-.28.063.209.638 0 0zm-1.893-1.165c-.28.063.209.638 0 0zm-106.295-.275c-.492-.567-.492.567 0 0zm11.448-.445c2.116.479.337-5.494.444-5.57 3.15-1.06-2.135-7.2.901-5.7.542-4.806-.603-9.05.53-12.854 2.012-3.526-3.18-6.828.097-6.99-.11-4.327.303-2.893.916-2.837 1.019-5.692-1.69-10.023-.374-16.1-1.693-3.306.283-2.126.287-6.404 1.475 4.914-.703-5.075-.538-6.804-.496-3.095-4.564-4.385-3.933 1.594-1.207 2.91.51 9.486 1.287 8.509-3.557 2.775-.84 12.363-2.01 17.74.79 4.696-.722 8.38-.084 13.697-.077 5.246-.218 10.142-.567 15.37.788 2.456-2.091 8.377 3.044 6.349zm-1-30.796c-.645-.674 1.267.478 0 0zm3.292-4.72c.128-.656.128.657 0 0zm-.095-1.038c-.07-3.462.882 1.387 0 0zm.182-1.812c-.632-2.936.558-.18 0 0zm95.604 38.129c-1.214-.048-.217.754 0 0zM77.8 54.65c-.216-.935-.137 1.283 0 0zm-52.784-.12c1.524-2.545.874-8.641.94-11.827.61-5.74.583-11.972.804-17.955-4.664-5.642-2.647 6.763-3.181 9.839.025 5.075-.353 10.788-.063 15.474.458 1.314-1.53 5.172 1.5 4.468zm81.43-.89c-.28.063.208.638 0 0zm-90.422-.499c3.674 2.033 2.745-7.33 1.798-3.29-.77-2.755 1.821-3.993.957-6.62-.158-2.3-4.261 3.422-4.54 7.098-.38 1.437-.578 3.896 1.785 2.812zm1.635-2.612c.211-1.158.134 1.178 0 0zm.273-4.365c-.217-1.846.569-1.264 0 0zm-4.956 6.644c1.738-3.042-3.912-16.602-2.878-7.61.7 2.567-1.784 8.166 2.878 7.61zm-1.73-2.766c.5-1.586.586 1.129 0 0zm29.092 2.202c-.845-.452-1.272.926 0 0zm-29.923-.033c-.32-1.052-.658.906 0 0zm31.02-.452c6.314-4.672-4.008.247 0 0zm65.97.074c.127-1.076-.785.212 0 0zm-38.818-1.312c-.576-.306-.136.328 0 0zm39.753-.455c-.241.186.216.96 0 0zm-29.577-.36c-2.592-4.293-7.652-2.433-10.136-6.608-3.337-1.798-7.148-6.757-12.234-5.307 5.124 1.68 8.804 6.819 11.208 10.939 1.016-.111 9.52 1.08 11.162.976zm-37.661-.626c4.117-4.437-3.114 1.016 0 0zm65.9-.219c3.555-1.07 5.633-1.532 8.964-1.178 3.475-.04 2.764-3.648 5.734-5.773.474-2.899 8.173-5.462 6.601-6.44-2.128-.03-9.168 5.135-6.121 1.722-4.39 1.891-4.565 1.455-6.002 5.261-2.868 1.936-1.329-1.37-4.594 2.285-1.427.797-5.442 2.883-4.582 4.123zm11.601-8.526c1.587-4.11 3.142.069 0 0zm-3.082 7.613c-.002-.512-.913.709 0 0zm-71.387-.23c-1.079-3.383-2.305 1.481 0 0zm-29.923-.932c.871-.4.332-6.595-1.064-1.955-.213.442.307 3.523 1.064 1.955zm25.399-.922c-.32-2.045-.884 1.287 0 0zM15.54 44.792c1.44-3.74-1.821 1.993 0 0zm55.882-.039c-.637-.129.45.658 0 0zm-58.718-.397c-.27-1.177-.665 1.05 0 0zm27.394-.736c1.577-1.727-2.367 1.04 0 0zm44.085-.077c-.413.282-.173.633 0 0zm-37.837.072c-1.034-1.133-1.188.723 0 0zm-4.215-.302c-.045-2.304-1.784 1.964 0 0zm-25.794-.19c-.108-2.088-2.397 1.374 0 0zm27.096-.167c-.45-.788-.259.988 0 0zm-30.92-.289c-.48-1.863-1.59 1.051 0 0zm2.446-.378c.005-3.043-3.045 1.657 0 0zm-2.105-.348c-.52-2.436-1.554-2.631-2.306-3.535-.744 1.05 1.28 3.943 2.306 3.535zm29.175.004c3.832-3.826-3.704.817 0 0zm-25.83-.292c.066-.803-1.035.64 0 0zm2.913-1.351c-.301-3.89-.983 4.686 0 0zm73.418.889c-.53-.667.395 1.074 0 0zm-52.301.034c-.349-.497-.59.279 0 0zm-24.06-.414c2.748-.606.397-7.574 2.25-4.002 2.155-2.12-2.282-4.437-1.581-1.345.123 2.217-2.88 4.003-1.133 5.574l.464-.227zm76.634-.687c-.176-.533-.359.519 0 0zm-50.973-.29c-.343-2.141 2.023 1.868 1.166-2.72.226-2.233.408-3.647-3.568-2.703-3.838-.257-2.023 1.58.316 1.16-2.985.451 2.237 3.467 2.086 4.264zm-1.71-.857c-1.531-1.518-.327 2.573 0 0zm52.525.419c-.534.225-.054.965 0 0zm24.433-.028c-.28.064.209.639 0 0zm-79.616-.555c-.764-.536-.764.537 0 0zm35.814-.582c-.534.225-.055.965 0 0zm-5.48 0c-.166-.799-.27.961 0 0zm-28.45.009c.277-1.353-1.632.347 0 0zm-28.125-.856c-.6-2.65-1.296 1.928 0 0zm50.416.41c-.359-.52-.176.532 0 0zm-23.765-.46c-1.198-1.415-.487 1.323 0 0zm91.148-.004c-.28.063.209.638 0 0zm-77.225-.796c-.84-.451-1.155 1.769 0 0zm71.846.054c1.969-1.492-3.392 1.56 0 0zm-55.527-.291c-1.407-3.122-5.566-8.81-.133-4.212 3.52 2.67 4.725-1.03 1.761-2.745 3.544.428 3.215-.853 2.528-2.125 4.102 1.071.676-4.865 3.605-6.04 1.373-7.856-9.48-3.984-10.613 1.213.773 4.293-7.063.33-2.472 3.56 2.63 2.073-4.548 7.814 2.18 8.34 1.008-.413 3.66 3.596 3.144 2.009zM69.72 24.26c-6.298-5.355 9.177-3.008.947.42l-.947-.42zm23.227 11.896c1.376.2-1.677-1.857 0 0zm-60.582-.264c-.64-.551-.316.74 0 0zm61.408-.173c-.254.145.237.802 0 0zm-81.384-.437c1.264-3.032-2.308-7.388-1.377-1.605-.126.254 1.405 3.947 1.377 1.605zm-1.346-.24c-.255-5.651-1.282 3.258 0 0zm120.099.762c-.802-.236-.146.255 0 0zm-56.97-.406c.234-1.24-.752.102 0 0zm28.124.034c-.636-.128.451.659 0 0zm23.348.032c-.176-.533-.36.519 0 0zm-7.254-1.274c-.235.216.226 1.128 0 0zm-.329-.023c-1.376-.86-.053.689 0 0zm-78.799-.543c.078-3.804 3.76 3.608 4.837-1.284-.041-2.07-.604-7.79-.957-7.689-.498 5.29-4.152 2.321-5.58 3.816-1.11 1.761-1.956 6.843 1.7 5.157zm79.92-.199c4.033-1.312 5.374-3.287 2.696-6.369-.193 1.503-3.248 6.868-2.696 6.369zm-86.667-1.494c.492-3.607-.741-6.557-.378-1.167.032.742.215 4.494.378 1.167zm44.235.973c-1.12-.283-.696.765 0 0zm-23.19-.839c1.721-.03-.565-2.994-.378.53l.379-.53zm23.15.487c1.388-.689 1.902-1.15 5.36-2.19 7.468-1.304-3.082-7.791-4.184-4.321.376 3.155-1.886 4.237-1.601 6.185.499.316-.98.751.424.326zm.583-1.166c.36-.519.176.533 0 0zm.711-3.85c-.265-1.51.484.801 0 0zm.004-1.003c-.04-1.2.513.67 0 0zm36.308 4.337c4.125-.494 9.301-7.532 4.31-8.467 2.263-3.05-1.962-6.364-2.45-1.877-8.94 4.413-.982-5.282-2.256-2.221 6.979 1.158-2.742-7.34-5.243-2.916-2.104 2.554-1.294 5.96 1.857 6.057-1.445 2.823-1.293 5.587 1.44 7.952-3.799-4.504 7.785-3.21 1.019-.128-1.791.439.292 3 1.323 1.6zm-3.583-5.116c.366-2.422 4.389-1.133.435.398l-.435-.398zm-55.94 4.086c-.408-1.07-.236 1.514 0 0zm-40.265-.201c1.906-1.47-1.699-9.088.971-4.21 1.429-1.874.471-3.877-.463-6.37-2.669-1.288.388-2.853.997.179 1.106-1.77-1.469-3.205.272-4.405-2.047-5.47-2.493 6.67-3.102.42-3.174 2.526 3.569-7.563 3.673-.622-.404 3.471 1.76 9.036 2.082 2.576.467-4.672-5.006-10.487-6.803-3.588-2.237 1.223-.81 4.417-.262 3.615-.415 3.75 2.754.036.713 4.755-.075 4.884 3.202-4.96 1.408 1.343-.458.859-1.676 8.265.514 6.307zm40.67-.656c-.602-.374-.119 2.175 0 0zm39.673.034c-1.526-4.238-.977-.15.004.656l-.004-.655zm-32.406.012c-.28.063.208.638 0 0zm-16.12-.337c-.536-1.273-.536 1.273 0 0zm8.835-.546c-.255.145.236.802 0 0zm6.85-.653c-.242.187.215.96 0 0zm-50.29-.221c2.061-5.639-1.56-.884 0 0zM41 26.838c3.112-2.476-.63-5.695.528-6.447 1.658-1.047-3.436-3.945 1.85-2.946-.164-2.377-2.338-2.438-1.402-5.874-1.202.39-1.963 6.93-3.917 7.7-2.147 3.169 1.363 5.203.41 7.926.855.118 1.734-.04 2.53-.36zm.248-10.89c.372-.522.372.523 0 0zm81.993 10.422c-.34-.5-.42.278 0 0zm-67.977-.44c-.067-1.057-.257 1.25 0 0zm-36.743-.463c-.47-5.093-1.468 1.5 0 0zm74.137-.05c-2.285-.922-4.944-4.762-3.17-.53.534.074 3.358 1.01 3.17.53zm-81.064-.257c-.497-1.719-.267 1.703 0 0zm21.135-.993c-.353-5.13-.548 4.477 0 0zm60.381-.353c2.614-.134 3.589-2.876-.595-1.027-1.65.747-2.462-2.456-1.71-2.535 2.294-1.163-1.773-2.019 1.561-2.82 1.626-1.345-2.007-.514-1.584-4.185-.422-1.579 7.676-3.173 3.557-7.076.791-6.134-4.548 1.403-5.697 1.561-5.468-6.494-4.677 5.09-2.902 5.118 3.947-1.75 5.976 2.537 2.797 3.468-2.214-.206-4.721-4.959-2.248.09 2.938 1.94 2.178 2.88 1.987 3.509 1.54.595 2.207 5.381 4.834 3.897zm-4.001-2.989c-.6-1.51 1.03.45 0 0zm.927-3.558c-.89-2.157.891 1.208 0 0zm17.2 5.521c-.545-.617.408 2.345 0 0zm.521.707c-.28.063.209.638 0 0zm-88.5-1.657c-1.158-5.386-.942 5.297 0 0zm103.367 1.312c.703-1.961-2 .767 0 0zm-95.728-.393c.22-7.21.452-14.474.406-21.668-5.955-3.514-1.943 8.616-3.199 11.89.632 2.973-2.55 11.268 2.793 9.778zm-15.38-.874c-1.282-.888.402 1.814 0 0zm33.08-.202c-.526-4.139-2.307 2.83 0 0zm56.975-1.198c3.68-4.99.263-.19-2.651 1.393.914-.399 1.823-.831 2.65-1.393zm21.951 1.23c.247-.643-1.16.718 0 0zm-88.973-.521c-.332-2.029-.332 2.028 0 0zm73.327.29c-.176-.532-.359.52 0 0zm-27.629-1.2c5.398-1.654 6.552-5.396 1.387-8.359 5.276 2.998-4.073-6.938-1.791-.153.01 3.304.061 8.46-.858 9.382zm-69 .176c-.85-1.245-.56 1.682 0 0zm45.842-.84c-.793-1.331-.545.994 0 0zm39.21.117c-.373-.522-.373.523 0 0zm-84.958-.667c-.712-2.721-.35 2.359 0 0zm83.109.232c1.356-1.895 1.487-4.872 2.807-7.138-2.565 3.02-4.07 2.426-3.55 6.344-.446.885-1.279 1.107.743.794zm1.719-.335c-.613-.338.548 1.122 0 0zm-8.93-.243c-.664-.805.178.968 0 0zm-.672-1.217c-2.3-2.477 1.336 1.807 0 0zm-66.727-.766c-.525-2.527-.481 2.596 0 0zm19.033.413c3.7-2.921-2.046-10.455-1.725-3.072 1.108.942-.706 4.188 1.725 3.072zm22.864-.065c-.28.063.208.638 0 0zm-1.41-.474c-.34-.5-.42.277 0 0zm40.149-.983c-.28.063.208.639 0 0zm-40.878-.264c-.176-.532-.359.519 0 0zm-39.784-.92c-.74-3.44-1.04 1.956 0 0zm41.05-.339c-.718.458.1 1.218 0 0zm1.501.604c-.57-.46-.57.46 0 0zm-27.674-.572c-.912-.187.417 1.065 0 0zm27.854-1.058c4.367-3.545-4.16 3.288 0 0zm-29.423.172c.27-2.51-.115-14.489-.522-6.181.078.495-.709 9.987.522 6.18zm-21.056-.786c.846-4.644-2.48 2.675 0 0zm97.75-.868c3.178-2.257.458-7.321 1.19-10.578-.924-3.785-7.038-.135-6.087.676-1.19 1.638-5.058 8.217.27 3.542-1.715.94-5.65 8.237-.551 6.978 1.851-.237 4.128 1.792 5.178-.618zm-5.022-5.183c.372-.504.03.663 0 0zm-85.439 5.977c-1.225-.712.192 1.216 0 0zm-.972-.367c1.324-1.084-.38-.704.402-3.495-2.524-1.624-2.946 3.648-.402 3.495zm107.334-.01c-.758-.574-.457.437 0 0zm-.633-1.263c-.546.748-.186.204 0 0zm-111.735-.12c4.14-.81 4.637-4.747 3.077-8.264-2.294.613-5.234 4.538-3.589 7.214-.853.354-.18 2.438.512 1.05zm.935-2.002c-1.446-3.21 2.184-5.694-.065-1.19-.446.015 1.567 3.103.065 1.19zm5.995.979C18.84 5.293 23.794-2.59 17.839-4.262 12.68-2.764 19.895 6.5 19.877 10.924c.133-.435.266-.887.403-1.314zm106.03-.511c-.395-.247.342 2.459 0 0zm-114.615 1.02c1.109-2.462-1.491-.275 0 0zm23.146-.205c-.27-.952-.558.772 0 0zm3.942-.524c-.671-3.148 5.571-4.695-.155-5.09 1.583 1.404-3.81 3.057-.39 5.236l.545-.146Zm43.344-.084c.499-3.683 2.231-7.597 5.704-9.344 2.58-1.354 7.71-.597 3.517-4.368-1.546-3.34-5.459 2.627-2.545-1.559 3.583-8.358-7.464-5.152-4.164.355C78.983-4.173 78.84 5.885 81.59 9.38l.537-.074zm4.56-9.814c.372-.522.372.523 0 0zm-.05-2.365c-.427-3.001 1.658 1.265 0 0zM18.27 7.211c-.452-3.983-1.554 1.79 0 0zm-6.65-.694c2.09-3.747 8.204-11.682.547-13.05-1.216 2.4-.33 7.504-1.027 11.134.056.235-.294 4.173.48 1.916zm.933-.38c-1.372 1.438.333.105 0 0zm31.416-.119c-.28.063.209.639 0 0zm.046-1.292c-.45-.787-.259.989 0 0zm57.917-.354c2.767-1.905-3.099.965 0 0zm-87.918-.526c-.437-1.6-.583 1.933 0 0zm88.594-.412c2.99-2.655 2.296-5.99-.5-8.747-4.696 1.78-3.131 8.37-2.037 8.531.792.33 1.701.471 2.537.216zM15.316 2.12c.81-1.586-1.746 1.126 0 0zm70.596-.617c-.28.063.209.638 0 0zM27.432.184c-.15-3.342 1.783-12.946-1.999-12.52-.056 3.471-3.64 12.84 2 12.52zM110.78-.883c-.653-3.503-4.679-5.755-5.208-.215 1.49.736 3.586.478 5.208.215zM20.36-3.823c.785-3.341 1.331-13.402-3.087-12.124-.426 3.667-3.593 11.158 2.13 12.015l.554.195.403-.086zm13.024-.107c-.361-.768-.361.767 0 0zm72.169-.75c4.866-3.898-2.595-9.963-2.91-2.792.404.792 1.968 3.78 2.91 2.792zm.36-2.671c-.563-.642 1.306.214 0 0zM15.742-6.006c1.14-4.329.122-7.58-2.818-3.159-2.734 2.174 1.406 3.267 2.818 3.16zm76.281.034c-.963-4.53-3.25.8 0 0zM82.9-6.23c2.595-2.313-2.198-2.422-.833.31l.833-.31zm18.178-.165c1.088-3.097-2.584 1.321 0 0zm-4.8-.655c.134-2.824-1.412 2.21 0 0zm2.023-4.275c3.514-2.42-3.305-2.545.614-3.055-1.25-2.355-4.598-3.14-.28-5.072 1.89-3.625-3.704-.461-.325-3.883-2.749.191-.93-4.337-3.736-3.489 1.64-3.1-4.868 2.536-.526 4.648-.926 4.026-2.94-4.475-4.588-.363.396 2.376-3.054-1.073-1.917 3.597.918 5.602 7.325.286 7.028-.74 2.575 1.78-4.751 5.142.359 6.76 1.523-5.602-.467 3.942 2.883 1.851l.488-.254zm-7.755-6.95c.726-.53.386.561 0 0zm1.82-.583c.56-.522.373.54 0 0zm-1.642-1.108c.558-3.033 1.584-.813 0 0zm2.953-4.645c.395-.676.395.677 0 0zM82.732-12.439c5.418-.342 2.58-10.177.15-3.689-.428.795-3.453 6.959-.15 3.69zm-53.787.751c3.494-2.985-1.412-11.73-1.962-3.602.626.96.24 4.098 1.962 3.602zm66.152-.3c-.099-2.205-1.744 1.21 0 0zM16.11-12.39c.681-3.025-1.63 1.1 0 0zm77.163-.269c-.6-2.572-1.97 1.261 0 0zm15.92-1.33c-.65-3.788-3.803-5.036-2.881-.454.972-.187 3.773 3.367 2.88.454zm-18.215-.5c-1.973-2.505-.732 2.438 0 0zm10.766.483c.62-2.472-2.844 1.01 0 0zm-85.984-2.34c-1.177-5.808-3.973-.399 0 0zm86.283-.171c-1.13-1.945.46-3.208 1.618-1.039.091-5.946-8.984.496-2.328.93l.34.235.37-.126zm-84.596-.776c3.073-2.375-1.62-11.988-2.147-4.1-.374.786.768 5.923 2.147 4.1zm79.958-.507c-.712-.003.397.754 0 0zm-73.343-.832c-.382-1.49-.508 1.221 0 0zm78.118-1.865c-3.28-5.413-3.395 1.436 0 0zm1.228-.158c-.517-.894-.504 1.016 0 0zm-.339-.801c-.449-.65-.402.783 0 0zm-.655-.89c-1.635-1.471-1.017 1.173 0 0zm-77.248-1.501c.52-5.674-5.311-1.531-1.913-1.156-.539 1.132 2.098 2.782 1.913 1.156zm1.656-.457c-.488-2.187-2.272 1.23 0 0zm71.907-.136c3.384-3.634-4.844-.228 0 0zm-71.463-.39c-.372-.522-.372.522 0 0zm.379-.594c.625-4.647-5.8-.936-.818-.748.883-1.176-1.106 2.3.818.748zm-5.94-1.42c-1.043-1.459-.428 1.567 0 0zm76.194.064c-1.638-2.53-.785 1.91 0 0zm-76.661-.902c-1.447-5.913-2.196-.467 0 0zm6.385-.448c-.553-2.57-.972 1.55 0 0zm-12.166-.138c2.328-3.346-1.95-.9 0 0zm11.008-.484c-1.134-1.77-.997 1.48 0 0zm1.153-.535c1.085-1.904-2.309-.723 0 0zm-7.515-1.768c-.915-1.523-.38 1.455 0 0zm.005-1.166c1.657-6.357-2.591-.468 0 0zm-.525-2.876c-.094-1.269-.318 1.27 0 0zM9.063 87.6c-.333-.575 1.064.488 0 0zm-2.986-.145c.177-.533.36.518 0 0zm8.039-.1c-2.454.26-.633-2.664 0 0zm-4.616-.92c.351-1.012.351 1.012 0 0zM13.286 86c.36-.519.176.533 0 0zm175.308-13.847c-.74-1.117 1.112.277 0 0zm.62-2.464c.583-1.04-.15 1.036 0 0zM25.52-32.056c.243-.503.628.79 0 0zm-2.674-2.895c.8-.922.11.88 0 0zm-.609-.52c-.178-.73.474.556 0 0z" clip-path="url(#a)" style="fill:#000;fill-rule:nonzero;stroke-width:.145635" transform="matrix(1.00133 0 0 1 -.674 -.055)"/><path d="M175.04 27.706c-.613-1.37.388.13 0 0zm-.464-.395c-.065-.43.493.113 0 0zm-.405-.388c-.055-.62-.012-.737-.56-.84-.027-1.445-.618-1.683-.283-3.427.112 1.784.115-1.347.716-1.078-1.17.203-2.988-1.465-2.478-1.088-.812-.988.464-2.352.587-.973.626 1.32.011-.673.764.359 2.134.295 1.376.028 3.084-.918.773.125.238-.437 1.29-.914-2.562-1.028-12.482-.183-17.705-.487-5.43.202-12.905-.518-17.21.615-1.209-6.19 2.794-1.924 6.398-3.194 9.5.188 19.73-.343 28.816.082.986-.128.056-.573-.818-.926-.685-.067-2.258-1.385-1.769-1.313-.117.038-3.32-.832-3.125.79-.1.768-.64-1.01-.392-1.525.357-.73.985.317.892-.542.12-.272.406-.598 1.035-.518.732-.49-.416-1.66-.171-2.031-.104-1.542.468-2.88.878-3.473.466-1.014.46 1.333.758-.863.866-1.045-.26 2.589.525 3.376-.358-1.544.587 1.283.747.941.06.524.467.279 1.861 1.706.382.87 1.904 1.176 1.556 1.383-1.284-.686.57.472 1.115.83.087.003 1.077.164 1.73 1.064 1.967.158-.084.574 1.826.554.769.576 1.171.842 1.38.65.623.377 3.077.7 3.003 1.114-1.223.127-2.035.821-3.503 1.162-.911.369-.723.103-1.464.682-1.882.122.46.043-1.51.733.342-.323.03-.208-1.07.301.59.503-1.503.451-.83.787-1.103.765-2.573 1.087-1.313.834-.838.333-.962 1.095-2.097 1.637-.704.522-1.307 2.32-1.66 1.611.21 1.1-.224.9-.221 2.383-1.003.163.322.86-.782.516zm.11-.133c-.152-.22-.074.227 0 0zm.564-.31c-.178-.052-.028-.05 0 0zm-.02-.775c-.022-.642-.22 1.299 0 0zm-.113-.112c-.189-.118.005.504 0 0zm-.633-.142c-.246-.13-.058.14 0 0zm.016-.273c-.242-.226-.242.227 0 0zm-.416-.148c.187-1.233-.671.242 0 0zm-.262-.41c.17-.627-.316.474 0 0zm1.818-.322c.1-.352-.328.46 0 0zm-1.697-.329c-.172-1.008.13 1.32 0 0zm2.072.103c-.143-.186-.143.186 0 0zm-2.342-.208c-.12.03.09.27 0 0zm.125-.281c-.102.08.092.408 0 0zm.186-.373c-.1.092.097.48 0 0zm2.751-.105c-.595-.578.071.419 0 0zm-.435-.345c-.15-.431-.15.431 0 0zm.807-.14c-.28.003-.13.35 0 0zm-3.126-.326c-.312-.052.04.474 0 0zm3.045-.228c-.12.03.09.27 0 0zm.33.043c-.154-.327-.154.327 0 0zm.372-.032c-.08-.175-.501.208 0 0zm-3.414-.154c-.154-.327-.154.327 0 0zm3.775-.374c-.22.01.065.259 0 0zm.26.064c-.04-1.928-.353.518 0 0zm-4.935-.275c.01-.342-.483.124 0 0zm.838-.093c.501-.319-.574-.017 0 0zm-1.552-.159c.044-.205-.398.146 0 0zm.807-.038c-.214-.246-.68.261 0 0zm-1.043-.148c.018.062-.807-.671 0 0zm.732-.062c-.242-.226-.242.227 0 0zm6.084 0c-.152-.22-.075.227 0 0zm-5.773-.124c-.243-.226-.243.227 0 0zm6.267-.245c.328-.419-1.064-.081 0 0zm-6.595.084c-.245-.13-.057.14 0 0zm6.9-.377c.669-.19-.585-.108 0 0zm-.364-.06c.149-.91.11-.233 0 0zm-5.853-.121c-.246-.13-.057.14 0 0zm.669-.025c-.223-.236-.077.244 0 0zm1.645-.222c-.186-.927-.217.976 0 0zm-4.212.02c.575-1.098-.728.362 0 0zm3.343-.046c.528-.313-.493.087 0 0zm1.118-.241c.924-.49-1.587-.02 0 0zm-4.53-.196c.144-.364-.323.226 0 0zm9.93-.183c-.454-.26.155.244 0 0zm-4.862-.46c-.24-.211.014.297 0 0zm.627-.172c-.327-.215-.037.248 0 0zm.387-.205c-.154-.327-.154.327 0 0zm.217-.279c-.16-.23-.237.222 0 0zm.28-.038c-.25-.11-.243.202 0 0zm4.016-.287c-.095.12.094.618 0 0zm.391.14c-.141-.865-.141.863 0 0zm-38.88-.006c.503-.504-1.017.125 0 0zm34.426.026c-.343-.1-.06.109 0 0zm7.671-.552c.445-.259-1.429-.102 0 0zm-.373-.007c.273-.088.026.119 0 0zm1.361-.367c-.246-.13-.057.14 0 0zm.016-.149c.096-.41-.395.051 0 0zm.387-.044c-.382-.42-.116.339 0 0zm-.573-.235c-.654-.344-.654.345 0 0zm1.143-.224c-.586-1.049-.59.439 0 0zm.517.156c-.246-.13-.058.14 0 0zm.002-.158c-.766-.725-.237-.085 0 0zm.54-.056c-.722-.311-.173.194 0 0zm-10.17-.282c-.245-.13-.056.14 0 0zm8.694-.002c.524-.296-.447-.2 0 0zm-9.004-.308c-.245-.13-.057.14 0 0zm-.48-.05c-.242-.201-.248.11 0 0zm8.428-.02c-.393-.31-.565.115 0 0zm-.311-.24c-.247-.13-.057.14 0 0zm-42.279-.316c-.261-.3-.131.229 0 0zm1.957.06c-1.172-.084-.233.084 0 0zm2.607.001c-.62-.093-.12.095 0 0zm6.209-.002c-1.725-.078-.345.078 0 0zm1.241.002c-.619-.093-.12.095 0 0zm3.353-.001c-1.172-.084-.233.084 0 0zm9.126.004c-.342-.1-.06.109 0 0zm10.43 0c-.342-.1-.06.109 0 0zm5.65-.072c-.405-.372.25.388 0 0zm.477.05c-.339-.19-.069.18 0 0zm-13.142-.043c-.62-.093-.122.095 0 0zm13.352-.042c-.094-.224-.247.227 0 0zm-8.51-.021c-1.172-.084-.233.084 0 0zm-32.95-.14c-.076-.227-.154.22 0 0zm35.17-.063c-.176-.458-.176.458 0 0zm-.364-.11c-.356-.049-.011.169 0 0zm4.989-.076c-.24-.222-.159.23 0 0zm.566-.012c-.369-.17-.043.18 0 0zm-6.189-.298c-.19-.352-.785.27 0 0zm-.481-.376c-.236-.877-.23.973 0 0zm5.078.158c-.292-.285.117.315 0 0zm-5.648-.153c-.909-.387-1.045-.103 0 0zm-4.828-.197c-.063-1.008-.18-.286 0 0zm4.859.01c-.223-.236-.077.244 0 0zm.155-.09c-.145-.212-.179.119 0 0zm4.933-.03c.225-.324-1.045.06 0 0zm-6.067-.166c-.247-.13-.057.14 0 0zm5.79-.124c-.455-.072-.334.344 0 0zm-6.008-.059c-.418-.31-.136.225 0 0zm.203-.027c-.175-.246-.12.12 0 0zm1.118 0c-.075-.227-.153.22 0 0zm-5.205-.202c-.108.062.1.342 0 0zm.207-.112c-.112-.797-.077.879 0 0zm7.996-.32c-.619-.174-.105.205 0 0zm.579-.004c-.42-.187-.088.249 0 0zm-5.47-.144c-.268-.326-.204.409 0 0zm4.47.038c-.243-.227-.243.226 0 0zm-5.65-.12c.743-.39-1.199.012 0 0zm1.878.076c-.62-.093-.12.095 0 0zm4.4-.149c-.558-.365.308.456 0 0zm-4.297-.016c-.254-.164-1.549.055 0 0zm-4.021-.18c-.141.047.208.23 0 0zm2.479-1.158c.009-.597-.271.78 0 0zm3.815.183c-.633-.274.17.255 0 0zm.058-.153c.768.067-1.232-.636 0 0zm-.213-.157c.159-.223.159.222 0 0zm-.287-.462c-1.142-1.222-.285.545 0 0zm-.932-.251c-.304-.333-.23.34 0 0zm.221-.237c-.189-.118.005.504 0 0zm-.492-.106c.354-.386-.376.403 0 0zm-2.726-.253c-.214-.33.18.55 0 0zm2.462.115c-.282-.282-.282.282 0 0zm-.527-.026c-.343-.1-.062.109 0 0zm-1.902-.402c-.329-.715.301.969 0 0zm1.933.19c-.477-.185-.078.215 0 0zm.264-.122c-.193-.225-.118.312 0 0zm.745.066c-.153-.221-.075.226 0 0zm-1.009-.105c-.481-.097-.091.1 0 0zm.292-.12c.234-.275-.475-.04 0 0zm-2.139-.333c-.153-.221-.075.226 0 0zm-.104-.798c.194-1.398-.133.804 0 0zm1.692.182c.338-.57-.37.133 0 0zm-.22-1.492c-.242-.227-.242.226 0 0zm-.033-.547c-.609-.419-.2.855 0 0zm-.005-.678c-.026-.935-.163.969 0 0zm-.424.167c-.146-.186-.15.272 0 0zm.524-.728c-.172-.119-.02.421 0 0zm-.083 22.153c.147-.325.053.327 0 0zm-34.791-.657c-.552-.73.362.142 1.457-.192-1.49-.228-.073-1.484-.724-2.87-.606-1.72.496-.13-.967-1.76.433-.335-1.24-1.535-.592-.748-.308-.116-1.18-1.159-1.048-1.616-.625-.255.635-1.342.387-1.385 1.71-.84.872-.167 1.204-.238 1.314.65-.587.76.575 2.124.172.34.481.371 1.026.68.617.759 1.006.182 1.035.51.52.319 3.22.09 2.675-.06 1.13-1.435.252-1.952.23-.95-.459-.514-.692-1.198.462-.93 1.19.145.944 1.714 1.151.905.331 1.005-.148 2.134-.14 1.726-.288 1.134-1.458 1.267-2.429 1.425-.081-.614-2.35-.586-1.006.956.322 1.194-1.516 2.968-3.296 2.423zm2.403-.555c.543-.092-.646.028 0 0zm-1.239-.152c-.093-.339-.276.3 0 0zm1.23-.08c-.54-.721.04.426 0 0zm.392.006c1.025-1.858-.699.43 0 0zm-.132-.255c.14-.322.272-.06 0 0zm-1.52-.555c-.007-2.212-.465-.962 0 0zm-.09-.092c-2.218-3.137 1.397 1.75 0 0zm-.061-.827c.089-.165.032.269 0 0zm.123-.677c.47-.458-.376.058 0 0zm.538-.192c-.246-.13-.057.14 0 0zm2.455-.127c-.415-.113-.074.113 0 0zm.371-.063c-.342-.1-.062.109 0 0zm.402-.058c-.246-.13-.057.14 0 0zm.296-.025c-.07-.084-.05-.061 0 0zm-3.942-.062c-.07-.201-.483.175 0 0zm4.284 0c.154-.244-.455.26 0 0zm-.886-.037c-.246-.13-.057.14 0 0zm-4.467-.906c-.228-.877-.44-.033 0 0zm-.267-.46c.392-.115-.694.147 0 0zm.269-.23c-.522-.374-.759.345 0 0zm2.308.021c-.159-.222-.159.223 0 0zm4.408-.182c-.415-1.255-.129.688 0 0zm-5.911-.38c-.785-.292.434.29 0 0zm.385.073c-.065-.312-.29.215 0 0zm4.641-.022c-.282-.283-.282.282 0 0zm.865-.058c-.12.03.09.27 0 0zm-7.698-.062c-.12.03.09.27 0 0zm-.205-.151c.177-.294-1.503-.364 0 0zm6.93-.148c.716.082-.721.092 0 0zm.787.05c-.12.03.09.27 0 0zm-.54-.36c-.655-.23-.655.23 0 0zm.21-.317c.317-.552-1.18.255 0 0zm-1.37-.508c-.225-.046-.287.373 0 0zm-4.985.054c.096-.424-.66.428 0 0zm5.384-.072c-.246-.13-.057.14 0 0zm-5.57-.087c-.16-.222-.16.223 0 0zm-.683-.82c-.183-1.093-.621.392 0 0zm.412 8.107c.004-.325.294.349 0 0zm2.444.03c.455-.26-.154.244 0 0zm-1.847-.183c.88-1.142.146-.336 0 0zm.17-.004c-.152-.22-.075.227 0 0zm.165-.341c.107-.559-.411.573 0 0zm2.427-2.672c-.028-.476.33.098 0 0zm.637-.149c-.128-.175.27.086 0 0zm-.248-.124c.158-.222.158.223 0 0zm29.602-2.77c.272-.089.025.118 0 0zm7.312-.01c-.06-.293.266.124 0 0zm-39.894-.385c.178-.118.144.213 0 0zm-2.323-.05c-.147-.309.224.09 0 0zm33.426-.567c.403-1.663.12.43 0 0zm.378-.077c-.261-.396.165.155 0 0zm4.775-.353c.118-.312.193.225 0 0zm-36.256-.35c.323-.618.243.078 0 0zm-4.753-.333c-.878.014-3.756-1.52-1.394-2.231-.095-.453 1.36-.554 2.08-.748-1.303.23 1.457.18 2.101.772.813.168 4.441.859.963 1.144.138-1.31-1.773.099-.332.007-.528.269-2.77 1.167-2.965.992.466.109-.349.164-.453.064zm-1.021-.375c-.616-.816-.491.116 0 0zm2.576 0c-.242-.226-.242.227 0 0zm-2.39-.124c-.198-.417-.698.165 0 0zm2.204-.062c-.071-.23-.318.178 0 0zm.701-.03c-.403-.238-.218.197 0 0zm-.422-.154c-.248-.11-.242.202 0 0zm-2.576-.064c-.456-.483-.195.32 0 0zm-.553-.159c.586-.216-1.082.107 0 0zm-.378-.15c-.075-.228-.153.22 0 0zm.9 0c-.326-.222-.326.22 0 0zm2.297-.038c-.249-.11-.242.202 0 0zm2.732.072c-.145-.213-.179.118 0 0zm-6.094-.43c.073-1.425-.247 1.25 0 0zm7.192.102c-.103.08.092.408 0 0zm.169-.032c-.03-.825-.168.862 0 0zm-1.225-.155c-.1.092.097.48 0 0zm-1.795-.151c-.367-.24-.052.254 0 0zm3.02-.058c-.415-.017-.29.26 0 0zm-7.195-.06c.099-.502-.273.465 0 0zm5.866.067c-1.016-.206-.543.092 0 0zm.325-.04c-.342-.101-.06.108 0 0zm.465.003c-.246-.13-.058.14 0 0zm-2.732-.372c-.245-.13-.058.14 0 0zm-3.025-.087c-.16-.23-.237.222 0 0zm3.134-.06c-1.136-.696-1.335.206 0 0zm-3.01-.126c-.075-.227-.153.221 0 0zm5.66 2.494c-.213-1.36 1.264-.065 0 0zm.499-.46c-.24.035.17.324 0 0zm43.264.486c.457-.306.316.093 0 0zM134.34 15.27c-.048-.292.616-.093 0 0zm5.89-.012c.446-.007-2.613-.625-1.396-.53-.496-.468-.22-.34-.59-1.105-.634.226.025-.988.38-.802.233-.66.924-1.6 1.17-1.394.406-.794.906-1.01 1.09-1.223.903-.444-1.058-4.414-.092-2.84 1.385 2.074-.895-1.248 0-.91 1.076-.88 3.158 2.236 2.036.828 1.369 1.404-.903 3.403 1.424 2.68-.116-.11 1.223-.308 1.106.015 2.525.545 1.99 3.76.368 3.854-1.768.49.278-2.487-.88-2.142-2.338-.037-2.116.122-4.027.658-1.376.372.086.44-.469 2.142 1.15.462.557.681-.12.77zm-.235-.162c-.246-.13-.057.14 0 0zm.819-.15c.156-.749-1.224.497 0 0zm-1.516-.123c-.175-.245-.121.12 0 0zm-.62-.124c-.224-.236-.078.245 0 0zm1.39-1.039c.539-1.944-.312.827-.001 0zm-.139.094c-.108.062.1.341 0 0zm5.888-.001c.798-1.523-2.005.563 0 0zm-.466-.043c.425-.28.129.128 0 0zm.728-.102c-.245-.13-.057.14 0 0zm-7.872-.23c-.189-.118.005.504 0 0zm8.386-.053c-.338-.27-.52-.057 0 0zm-6.55-.176c-.075-.226-.153.221 0 0zm-1.149-.1c-.12-.449-.494.272 0 0zm8.09-.475c.113-2.107-.415.95 0 0zm-6.351.265c-.159-.222-.159.223 0 0zm-1.823-.38c-.288-.44-.012.581 0 0zm1.187-.29c-.052-.254-.366.24 0 0zm.973-.1c-.461-.26.278.292 0 0zm-.524-.036c-.158-.222-.158.223 0 0zm.28-.186c-.278-.401-.278.402 0 0zm.438.057c-.273-.514-.169.31 0 0zm-1.866-.057c-.223-.236-.077.245 0 0zm1.148-.186c-.158-.222-.158.223 0 0zm.466 0c-.075-.226-.153.221 0 0zm.403 0c-.153-.22-.075.227 0 0zm1.46 0c-.712-.167.418.207 0 0zm2.902-.291c-.62-.093-.12.095 0 0zm1.266-.255c-.221-.926-.1.884 0 0zm-.097.014c.089-.165.032.27 0 0zm-1.17.055c-.619-.094-.12.095 0 0zm.606-.328c-.219-.86-.219.859 0 0zm.235-.385c-.437-.554.103.503 0 0zm-5.221-.31c-.12.03.09.27 0 0zm2.565-.111c-.1-.262-.375.212 0 0zm.231.024c-.245-.13-.057.14 0 0zm.716-.003c-.343-.1-.061.108 0 0zm.31-.062c-.342-.1-.06.108 0 0zm-2.167-.207c.145-.689-.414.675 0 0zm-1.675-.342c-.147-.325-.054.328 0 0zm.04-.22c-.216-.467-.355.028 0 0zm-.094-.618c-.317-.346.39 1.137 0 0zm2.08.435c-.96-.366.084-.06 0 0zm.062-.372c-.153-.22-.074.227 0 0zm-.02-.387c-.109.062.1.341 0 0zm-2.033-.186c-.103-.313-.115.43 0 0zm1.681-.121c-.097-.264-.168.288 0 0zm-.248-.41c-.123-.618-.795.365 0 0zm-1.403-.995c-.136-.11-.587.184 0 0zm.268.016c-.246-.13-.057.14 0 0zm.452-.025c-.398-.145.046.204 0 0zm-1.101-.04c-.414-.114-.075.112 0 0zm.79-.022c-.398-.334-.17.217 0 0zm-6.798 8.371c.909-.34.836-.002 0 0zm49.429-.104c-.251-.218.214-.154 0 0zm-48.388-.064c.41-.091.079.103 0 0zm6.487-.184c.342-.1.061.109 0 0zm-4.381-.366c1.162 0 .31.125 0 0zm38.542.035c.158-.222.158.223 0 0zm6.022-.248c-1.093-.161.794-.138 0 0zm-37.696-.104c.272-.089.026.119 0 0zm37.387-.141c-.266-.199.299.001 0 0zm-10.12-.773c-.162-.577 1.11-.098 0 0zm.31-.194c-.272.061-.14.323 0 0zm2.11.034c.159-.222.159.223 0 0zm-33.81-.052c-1.565-.003 2.449-1.04 0 0zm.254-.196c-.077-.245-.222.237 0 0zm.28-.148c-.243-.202-.249.11 0 0zm29.997.135c-.334-.285.2-.154 0 0zm-24.211-.576c.066-.294.038.374 0 0zm32.01.113c-.33-.526.487.212 0 0zm-36.059-.293c.703-.23-.567.3 0 0zm28.937-.011c.089-.165.032.269 0 0zm-.323-.14c1.398-1.101-.358.545 0 0zm.318-.196c-.075-.227-.153.221 0 0zm-31.966-.613c.202-.713.248.508 0 0zm.348-.58c1.08-2.92.216.847 0 0zm32.813-.884c.06-.405.038.482 0 0zm-.036-1.842c.484-1.948-.029 1.091 0 0zm.125-.309c-.12.03.09.27 0 0zm-33.12-.265c-.667-1.017.937.544 0 0zm2.257.062c.558-.36-.26.343 0 0zM139.7 6.64c-.127-.176.27.086 0 0zm34.084-.651c.078-.335.317-.23 0 0zm.843-1.194c.17-.344.194.204 0 0z" style="fill:#ff1114;fill-opacity:1;stroke-width:2.00082"/></g></svg>